<mxfile host="app.diagrams.net" agent="Mozilla/5.0 (Macintosh; Intel Mac OS X 10_15_7) AppleWebKit/537.36 (KHTML, like Gecko) Chrome/131.0.0.0 Safari/537.36" version="26.1.1">
  <diagram name="Page-1" id="XyuGMwbOeq1ZeNb5u-XI">
    <mxGraphModel dx="2074" dy="1121" grid="1" gridSize="10" guides="1" tooltips="1" connect="1" arrows="1" fold="1" page="1" pageScale="1" pageWidth="850" pageHeight="1100" math="0" shadow="0">
      <root>
        <mxCell id="0" />
        <mxCell id="1" parent="0" />
        <mxCell id="HF2zi4jLO3rQ-RF6DWZU-1" value="" style="edgeStyle=orthogonalEdgeStyle;rounded=0;orthogonalLoop=1;jettySize=auto;html=1;" parent="1" source="HF2zi4jLO3rQ-RF6DWZU-2" target="HF2zi4jLO3rQ-RF6DWZU-15" edge="1">
          <mxGeometry relative="1" as="geometry" />
        </mxCell>
        <mxCell id="HF2zi4jLO3rQ-RF6DWZU-2" value="Hubarc Frontend" style="rounded=1;whiteSpace=wrap;html=1;" parent="1" vertex="1">
          <mxGeometry x="100" y="560" width="120" height="60" as="geometry" />
        </mxCell>
        <mxCell id="HF2zi4jLO3rQ-RF6DWZU-3" value="" style="edgeStyle=orthogonalEdgeStyle;rounded=0;orthogonalLoop=1;jettySize=auto;html=1;" parent="1" source="HF2zi4jLO3rQ-RF6DWZU-4" target="HF2zi4jLO3rQ-RF6DWZU-15" edge="1">
          <mxGeometry relative="1" as="geometry" />
        </mxCell>
        <mxCell id="HF2zi4jLO3rQ-RF6DWZU-4" value="Artifactory Frontend" style="rounded=1;whiteSpace=wrap;html=1;" parent="1" vertex="1">
          <mxGeometry x="270" y="560" width="120" height="60" as="geometry" />
        </mxCell>
        <mxCell id="HF2zi4jLO3rQ-RF6DWZU-5" value="" style="edgeStyle=orthogonalEdgeStyle;rounded=0;orthogonalLoop=1;jettySize=auto;html=1;" parent="1" source="HF2zi4jLO3rQ-RF6DWZU-6" target="HF2zi4jLO3rQ-RF6DWZU-17" edge="1">
          <mxGeometry relative="1" as="geometry" />
        </mxCell>
        <mxCell id="HF2zi4jLO3rQ-RF6DWZU-6" value="Cognition Frontend" style="rounded=1;whiteSpace=wrap;html=1;" parent="1" vertex="1">
          <mxGeometry x="450" y="560" width="120" height="60" as="geometry" />
        </mxCell>
        <mxCell id="HF2zi4jLO3rQ-RF6DWZU-7" value="" style="edgeStyle=orthogonalEdgeStyle;rounded=0;orthogonalLoop=1;jettySize=auto;html=1;" parent="1" source="HF2zi4jLO3rQ-RF6DWZU-8" target="HF2zi4jLO3rQ-RF6DWZU-19" edge="1">
          <mxGeometry relative="1" as="geometry" />
        </mxCell>
        <mxCell id="HF2zi4jLO3rQ-RF6DWZU-8" value="Pathfinder Frontend" style="rounded=1;whiteSpace=wrap;html=1;" parent="1" vertex="1">
          <mxGeometry x="630" y="560" width="120" height="60" as="geometry" />
        </mxCell>
        <mxCell id="HF2zi4jLO3rQ-RF6DWZU-14" value="" style="edgeStyle=orthogonalEdgeStyle;rounded=0;orthogonalLoop=1;jettySize=auto;html=1;" parent="1" source="HF2zi4jLO3rQ-RF6DWZU-15" target="HF2zi4jLO3rQ-RF6DWZU-20" edge="1">
          <mxGeometry relative="1" as="geometry" />
        </mxCell>
        <mxCell id="HF2zi4jLO3rQ-RF6DWZU-15" value="Hubarc Backend" style="rounded=1;whiteSpace=wrap;html=1;" parent="1" vertex="1">
          <mxGeometry x="100" y="410" width="290" height="60" as="geometry" />
        </mxCell>
        <mxCell id="HF2zi4jLO3rQ-RF6DWZU-16" value="" style="edgeStyle=orthogonalEdgeStyle;rounded=0;orthogonalLoop=1;jettySize=auto;html=1;" parent="1" source="HF2zi4jLO3rQ-RF6DWZU-17" target="HF2zi4jLO3rQ-RF6DWZU-24" edge="1">
          <mxGeometry relative="1" as="geometry" />
        </mxCell>
        <mxCell id="HF2zi4jLO3rQ-RF6DWZU-17" value="Cognition Backend" style="rounded=1;whiteSpace=wrap;html=1;" parent="1" vertex="1">
          <mxGeometry x="450" y="670" width="120" height="60" as="geometry" />
        </mxCell>
        <mxCell id="HF2zi4jLO3rQ-RF6DWZU-18" value="" style="edgeStyle=orthogonalEdgeStyle;rounded=0;orthogonalLoop=1;jettySize=auto;html=1;" parent="1" source="HF2zi4jLO3rQ-RF6DWZU-19" target="HF2zi4jLO3rQ-RF6DWZU-25" edge="1">
          <mxGeometry relative="1" as="geometry" />
        </mxCell>
        <mxCell id="HF2zi4jLO3rQ-RF6DWZU-19" value="Pathfinder Backend" style="rounded=1;whiteSpace=wrap;html=1;" parent="1" vertex="1">
          <mxGeometry x="630" y="670" width="120" height="60" as="geometry" />
        </mxCell>
        <mxCell id="HF2zi4jLO3rQ-RF6DWZU-20" value="Graph&lt;div&gt;Db&lt;/div&gt;" style="shape=cylinder3;whiteSpace=wrap;html=1;boundedLbl=1;backgroundOutline=1;size=15;" parent="1" vertex="1">
          <mxGeometry x="490" y="400" width="60" height="80" as="geometry" />
        </mxCell>
        <mxCell id="HF2zi4jLO3rQ-RF6DWZU-24" value="&lt;div&gt;RDB&lt;/div&gt;" style="shape=cylinder3;whiteSpace=wrap;html=1;boundedLbl=1;backgroundOutline=1;size=15;" parent="1" vertex="1">
          <mxGeometry x="480" y="770" width="60" height="80" as="geometry" />
        </mxCell>
        <mxCell id="HF2zi4jLO3rQ-RF6DWZU-25" value="&lt;div&gt;&lt;span style=&quot;background-color: transparent; color: light-dark(rgb(0, 0, 0), rgb(255, 255, 255));&quot;&gt;RDB&lt;/span&gt;&lt;/div&gt;" style="shape=cylinder3;whiteSpace=wrap;html=1;boundedLbl=1;backgroundOutline=1;size=15;" parent="1" vertex="1">
          <mxGeometry x="660" y="770" width="60" height="80" as="geometry" />
        </mxCell>
        <mxCell id="HF2zi4jLO3rQ-RF6DWZU-26" value="&lt;h1 style=&quot;margin-top: 0px;&quot;&gt;Environment 1&lt;/h1&gt;" style="text;html=1;whiteSpace=wrap;overflow=hidden;rounded=0;" parent="1" vertex="1">
          <mxGeometry x="60" y="20" width="630" height="40" as="geometry" />
        </mxCell>
      </root>
    </mxGraphModel>
  </diagram>
</mxfile>
